# xmcd CD database file
#
# Track frame offsets:
#	150
#	10847
#	37395
#	47780
#	78150
#	89590
#	114642
#	122150
#	148570
#	156400
#	184782
#	197397
#	223847
#	234102
#	264965
#
# Disc length: 3930 seconds
#
# Revision: 0
# Processed by: cddbd v1.5.1PL0 Copyright (c) Steve Scherf et al.
# Submitted via: CDex 1.51
#
DISCID=ce0f580f
DTITLE=shantiprem - kraaz von rihr - blütenklänge zu den bachblüten
DYEAR=1900
DGENRE=New Age
TTITLE0=Blütengruppe I
TTITLE1=Urvertrauen
TTITLE2=Blütengruppe II
TTITLE3=Innere Stärke
TTITLE4=Blütengruppe III
TTITLE5=Offene Lebendigkeit
TTITLE6=Blütengruppe IV
TTITLE7=Licht der Harmonie
TTITLE8=Blütengruppe V
TTITLE9=Intuition
TTITLE10=Blütengruppe VI
TTITLE11=Liebevolle Verbundenheit
TTITLE12=Blütengruppe VII
TTITLE13=Innenschau
TTITLE14=Die Quelle der Weisheit
EXTD=
EXTT0=
EXTT1=
EXTT2=
EXTT3=
EXTT4=
EXTT5=
EXTT6=
EXTT7=
EXTT8=
EXTT9=
EXTT10=
EXTT11=
EXTT12=
EXTT13=
EXTT14=
PLAYORDER=
